<?xml version="1.0" encoding="iso-8859-1"?>
<!-- Generator: Adobe Illustrator 19.0.0, SVG Export Plug-In . SVG Version: 6.00 Build 0)  -->
<svg version="1.1" id="Capa_1" xmlns="http://www.w3.org/2000/svg" xmlns:xlink="http://www.w3.org/1999/xlink" x="0px" y="0px"
	 viewBox="0 0 464.715 464.715" style="enable-background:new 0 0 464.715 464.715;" xml:space="preserve">
<path style="fill:#FDBD40;" d="M400.672,64.358c-2.676,0.018-5.348,0.205-8,0.56c0-0.192,0-0.376,0-0.56
	c0.023-35.346-28.612-64.019-63.958-64.042s-64.019,28.612-64.042,63.958c-0.015,23.042,12.357,44.313,32.392,55.692
	L117.192,299.838c-20.049-29.255-60.018-36.717-89.272-16.668s-36.717,60.018-16.668,89.272
	c13.682,19.964,37.428,30.54,61.42,27.355v0.56c-0.023,35.346,28.612,64.019,63.958,64.042s64.019-28.612,64.042-63.958
	c0.015-23.042-12.357-44.313-32.392-55.692l179.872-179.872c20.169,29.027,60.051,36.207,89.077,16.037s36.207-60.051,16.037-89.077
	C441.298,74.612,421.648,64.345,400.672,64.358L400.672,64.358z"/>
<g>
	<path style="fill:#DD3E46;" d="M296.672,64.358c-4.418,0-8-3.582-8-8c0-17.673,14.327-32,32-32c4.418,0,8,3.582,8,8s-3.582,8-8,8
		c-8.837,0-16,7.163-16,16C304.672,60.776,301.09,64.358,296.672,64.358z"/>
	<path style="fill:#DD3E46;" d="M32.672,336.358c-4.418,0-8-3.582-8-8c0-17.673,14.327-32,32-32c4.418,0,8,3.582,8,8s-3.582,8-8,8
		c-8.837,0-16,7.163-16,16C40.672,332.776,37.09,336.358,32.672,336.358z"/>
</g>
<g>
</g>
<g>
</g>
<g>
</g>
<g>
</g>
<g>
</g>
<g>
</g>
<g>
</g>
<g>
</g>
<g>
</g>
<g>
</g>
<g>
</g>
<g>
</g>
<g>
</g>
<g>
</g>
<g>
</g>
</svg>
